<?xml version="1.0" encoding="UTF-8"?>
<svg width="48px" height="55px" viewBox="0 0 48 55" version="1.1" xmlns="http://www.w3.org/2000/svg" xmlns:xlink="http://www.w3.org/1999/xlink">
    <!-- Generator: sketchtool 49.3 (51167) - http://www.bohemiancoding.com/sketch -->
    <title>817EB551-065D-4FBA-AEA7-17DFB512BC4D</title>
    <desc>Created with sketchtool.</desc>
    <defs></defs>
    <g id="Layouts" stroke="none" stroke-width="1" fill="none" fill-rule="evenodd">
        <g id="Content_elements" transform="translate(-128.000000, -399.000000)" fill="#000000" fill-rule="nonzero">
            <g id="paatokset" transform="translate(112.000000, 311.000000)">
                <g id="Group-Copy-3" transform="translate(0.000000, 75.000000)">
                    <g id="file-text" transform="translate(16.000000, 13.000000)">
                        <path d="M45.696,12.32 C44.4891429,10.6333333 42.9531429,8.83666667 41.088,6.93 C39.2228571,5.02333333 37.4308571,3.465 35.712,2.255 C33.664,0.751666667 32.0365714,0 30.8297143,0 L4.27885714,0 C3.072,0 2.06628571,0.421666667 1.26171429,1.265 C0.457142857,2.10833333 0.0365714286,3.11666667 0,4.29 L0,50.71 C0,51.8833333 0.420571429,52.8916667 1.26171429,53.735 C2.10285714,54.5783333 3.10857143,55 4.27885714,55 L43.6662857,55 C44.8731429,55 45.8971429,54.5783333 46.7382857,53.735 C47.5794286,52.8916667 48,51.8833333 48,50.71 L48,17.16 C48,15.9866667 47.232,14.3733333 45.696,12.32 Z M38.6194286,9.405 C40.1188571,10.9083333 41.4171429,12.3566667 42.5142857,13.75 L34.2857143,13.75 L34.2857143,5.5 C35.6388571,6.56333333 37.0834286,7.865 38.6194286,9.405 Z M44.544,50.71 C44.544,50.93 44.4708571,51.1316667 44.3245714,51.315 C44.1782857,51.4983333 43.9588571,51.5716667 43.6662857,51.535 L4.27885714,51.535 C4.02285714,51.535 3.82171429,51.4616667 3.67542857,51.315 C3.52914286,51.1683333 3.43771429,50.9666667 3.40114286,50.71 L3.40114286,4.29 C3.40114286,4.07 3.49257143,3.86833333 3.67542857,3.685 C3.85828571,3.50166667 4.05942857,3.41 4.27885714,3.41 L30.8297143,3.41 L30.8297143,15.455 C30.8297143,15.9316667 30.9942857,16.335 31.3234286,16.665 C31.6525714,16.995 32.0548571,17.16 32.5302857,17.16 L44.544,17.16 L44.544,50.71 Z M35.9862857,44.66 L11.9588571,44.66 C11.4834286,44.66 11.0811429,44.495 10.752,44.165 C10.4228571,43.835 10.2582857,43.4316667 10.2582857,42.955 C10.2582857,42.4783333 10.4228571,42.075 10.752,41.745 C11.0811429,41.415 11.4834286,41.25 11.9588571,41.25 L35.9862857,41.25 C36.4617143,41.25 36.864,41.415 37.1931429,41.745 C37.5222857,42.075 37.6868571,42.4783333 37.6868571,42.955 C37.6868571,43.4316667 37.5222857,43.835 37.1931429,44.165 C36.864,44.495 36.4617143,44.66 35.9862857,44.66 Z M35.9862857,37.785 L11.9588571,37.785 C11.4834286,37.785 11.0811429,37.62 10.752,37.29 C10.4228571,36.96 10.2582857,36.5566667 10.2582857,36.08 C10.2582857,35.6033333 10.4228571,35.2 10.752,34.87 C11.0811429,34.54 11.4834286,34.375 11.9588571,34.375 L35.9862857,34.375 C36.4617143,34.375 36.864,34.54 37.1931429,34.87 C37.5222857,35.2 37.6868571,35.6033333 37.6868571,36.08 C37.6868571,36.5566667 37.5222857,36.96 37.1931429,37.29 C36.864,37.62 36.4617143,37.785 35.9862857,37.785 Z M35.9862857,30.91 L11.9588571,30.91 C11.4834286,30.91 11.0811429,30.745 10.752,30.415 C10.4228571,30.085 10.2582857,29.6816667 10.2582857,29.205 C10.2582857,28.7283333 10.4228571,28.325 10.752,27.995 C11.0811429,27.665 11.4834286,27.5 11.9588571,27.5 L35.9862857,27.5 C36.4617143,27.5 36.864,27.665 37.1931429,27.995 C37.5222857,28.325 37.6868571,28.7283333 37.6868571,29.205 C37.6868571,29.6816667 37.5222857,30.085 37.1931429,30.415 C36.864,30.745 36.4617143,30.91 35.9862857,30.91 Z" id="Shape"></path>
                    </g>
                </g>
            </g>
        </g>
    </g>
</svg>